<svg width="27" height="29" viewBox="0 0 27 29" fill="none" xmlns="http://www.w3.org/2000/svg">
<path d="M24.7065 12.994C24.7065 19.4124 21.5537 28.0031 15.0798 28.0031C9.61805 28.0031 5.17416 19.4124 5.17416 12.994C5.17416 6.57559 9.98172 4.27901 15.0798 4.27901C20.1779 4.27901 24.7065 6.57559 24.7065 12.994Z" fill="white"/>
<rect x="0.838165" y="3.18616" width="25.0628" height="4.82945" transform="rotate(-5.72648 0.838165 3.18616)" fill="black"/>
<path d="M6.47638 10.9223L8.6022 9.09119L10.644 8.60709L11.3769 9.64615L10.1369 9.64615L8.72849 10.1015L5.866 11.8695L6.47638 10.9223Z" fill="black"/>
<path d="M13.1081 10.3247L13.1932 9.05552L13.1081 8.5229L12.6759 8.1958L12.3141 8.00361L11.7966 8.10532L10.7297 8.5229L11.4956 9.6182L11.7966 9.24259L12.1633 9.05552L12.4557 9.39859L12.7713 10.893L13.1081 10.3247Z" fill="black"/>
<path d="M19.7609 22.6633C18.5234 22.8086 17.8221 23.2257 15.6094 23.6374C13.3167 23.6374 13.3358 23.1914 11.3244 23.3884C13.8685 22.917 14.6969 22.0766 15.5204 22.7669C16.1377 21.7405 18.4999 22.7148 19.7609 22.6633Z" fill="black"/>
<path d="M20.5312 22.6289C20.5859 22.832 20.3065 23.0393 20.093 23.0393C19.7065 22.6743 20.093 23.0393 19.7065 22.6743C20.093 22.3092 19.7065 22.6743 20.093 22.3092C20.3065 22.3092 20.4766 22.4258 20.5312 22.6289Z" fill="black"/>
<path d="M11.3869 23.391C11.0004 23.6797 11.3869 23.391 11.0004 23.6797C10.7869 23.6797 10.6406 23.5571 10.6406 23.3555C10.6406 23.1539 10.8217 23.0664 11.0352 23.0664C11.3869 23.391 11.0352 23.0664 11.3869 23.391Z" fill="black"/>
<path d="M16.1724 17.4713C16.261 18.276 15.7812 18.989 15.1007 19.0639C14.4203 19.1388 13.7969 18.5472 13.7083 17.7425C13.6197 16.9378 14.0995 16.2248 14.78 16.1499C15.4604 16.075 16.0838 16.6666 16.1724 17.4713Z" fill="#FF0101"/>
<path d="M10.6898 19.1838C10.7971 19.9336 9.98068 19.7344 10.0019 20.5556C10.0231 21.3768 10.0048 19.7351 9.22401 19.3883C9.11672 18.6385 9.98584 19.0019 9.6638 17.9452C10.117 18.1659 9.98533 18.9823 10.6898 19.1838Z" fill="black"/>
<path d="M9.43503 16.7345L10.6719 14.7813L8.24588 15.2211L9.43503 16.7345Z" fill="black"/>
<path d="M19.4295 8.79493L21.047 10.7849L18.3408 11.1168L19.4295 8.79493Z" fill="black"/>
<path d="M8.4372 11.9366L8.15552 12.0746L7.78209 12.2782M8.4372 11.9366L7.78209 12.2782M8.4372 11.9366L8.78975 11.7779L9.1825 11.578L9.5301 11.4613L9.84766 11.4613L10.4195 11.5196L10.8599 11.6441C11.1345 11.7322 11.2885 11.7815 11.5631 11.8696C11.7615 11.8696 11.9015 11.9631 11.9917 12.0746L11.4315 12.0746L11.67 12.2295L9.5301 12.4588L9.0737 12.6056M7.78209 12.2782L7.29195 12.71L6.99688 13.1103L9.0737 12.6056M7.78209 12.2782L9.0737 12.6056" stroke="black"/>
<path d="M9.02271 14.8158L8.45091 14.7573L8.01056 14.6327C7.73595 14.5445 7.58199 14.4951 7.30738 14.4069C7.109 14.4068 7.2854 14.3133 7.19524 14.2018L7.51468 14.2018L7.19524 13.9996L9.34027 13.5679L9.83593 13.3717M9.02271 14.8158L8.83502 14.4069M9.02271 14.8158L9.34029 14.8159M10.4333 14.341L10.715 14.2031L11.0885 13.9996M10.4333 14.341L11.0885 13.9996M10.4333 14.341L10.0807 14.4995M11.0885 13.9996L11.5788 13.5679L11.874 13.1677L9.83593 13.3717M11.0885 13.9996L9.83593 13.3717M9.83593 14.2031L8.83502 14.4069M9.83593 14.2031L10.0807 14.4995M9.83593 14.2031L9.34029 14.8159M8.83502 14.4069L9.83593 14.6327M10.0807 14.4995L9.83593 14.6327M9.34029 14.8159L9.83593 14.6327" stroke="black"/>
<path d="M18.502 11.5249L18.2203 11.6629L17.8468 11.8665M18.502 11.5249L17.8468 11.8665M18.502 11.5249L18.8545 11.3663L19.2473 11.1663L19.5949 11.0496L19.9124 11.0496L20.4842 11.108L20.9246 11.2324C21.1993 11.3205 21.3532 11.3699 21.6279 11.458C21.8263 11.458 21.9663 11.5514 22.0565 11.6629L21.4963 11.6629L21.7348 11.8178L19.5949 12.0472L19.1385 12.194M17.8468 11.8665L17.3567 12.2983L17.0616 12.6987L19.1385 12.194M17.8468 11.8665L19.1385 12.194" stroke="black"/>
<path d="M19.0875 14.4041L18.5157 14.3456L18.0753 14.221C17.8007 14.1328 17.6467 14.0834 17.3721 13.9952C17.1738 13.9952 17.3502 13.9017 17.26 13.7902L17.5794 13.7902L17.26 13.5879L19.405 13.1563L19.9007 12.96M19.0875 14.4041L18.8998 13.9952M19.0875 14.4041L19.405 14.4042M20.4981 13.9293L20.7798 13.7914L21.1533 13.5879M20.4981 13.9293L21.1533 13.5879M20.4981 13.9293L20.1455 14.0878M21.1533 13.5879L21.6436 13.1563L21.9388 12.756L19.9007 12.96M21.1533 13.5879L19.9007 12.96M19.9007 13.7914L18.8998 13.9952M19.9007 13.7914L20.1455 14.0878M19.9007 13.7914L19.405 14.4042M18.8998 13.9952L19.9007 14.221M20.1455 14.0878L19.9007 14.221M19.405 14.4042L19.9007 14.221" stroke="black"/>
</svg>
