<svg width="40" height="40" viewBox="0 0 40 40" fill="none" xmlns="http://www.w3.org/2000/svg">
<g opacity="0.5" clip-path="url(#clip0_4_14)">
<path d="M20.0027 16.7178C18.2991 16.7178 16.925 18.0704 16.925 19.7474C16.925 21.4243 18.2991 22.7769 20.0027 22.7769C21.7062 22.7769 23.0804 21.4243 23.0804 19.7474C23.0804 18.0704 21.7062 16.7178 20.0027 16.7178ZM20.0027 21.717C18.9018 21.717 18.0018 20.8337 18.0018 19.7474C18.0018 18.661 18.8991 17.7777 20.0027 17.7777C21.1062 17.7777 22.0036 18.661 22.0036 19.7474C22.0036 20.8337 21.1036 21.717 20.0027 21.717V21.717ZM23.9241 16.5938C23.9241 16.9867 23.6027 17.3005 23.2062 17.3005C22.8071 17.3005 22.4884 16.9841 22.4884 16.5938C22.4884 16.2036 22.8098 15.8872 23.2062 15.8872C23.6027 15.8872 23.9241 16.2036 23.9241 16.5938ZM25.9625 17.311C25.917 16.3645 25.6973 15.526 24.9929 14.8352C24.2911 14.1443 23.4393 13.9281 22.4777 13.8807C21.4866 13.8253 18.5161 13.8253 17.525 13.8807C16.5661 13.9255 15.7143 14.1417 15.0098 14.8325C14.3054 15.5233 14.0884 16.3618 14.0402 17.3084C13.9839 18.284 13.9839 21.2081 14.0402 22.1837C14.0857 23.1303 14.3054 23.9687 15.0098 24.6596C15.7143 25.3504 16.5634 25.5666 17.525 25.6141C18.5161 25.6694 21.4866 25.6694 22.4777 25.6141C23.4393 25.5692 24.2911 25.353 24.9929 24.6596C25.6946 23.9687 25.9143 23.1303 25.9625 22.1837C26.0187 21.2081 26.0187 18.2866 25.9625 17.311V17.311ZM24.6821 23.2305C24.4732 23.7473 24.0687 24.1454 23.5411 24.3537C22.7509 24.6622 20.8759 24.591 20.0027 24.591C19.1295 24.591 17.2518 24.6596 16.4643 24.3537C15.9393 24.148 15.5348 23.7499 15.3232 23.2305C15.0098 22.4526 15.0821 20.6069 15.0821 19.7474C15.0821 18.8878 15.0125 17.0395 15.3232 16.2643C15.5321 15.7475 15.9366 15.3493 16.4643 15.141C17.2545 14.8325 19.1295 14.9037 20.0027 14.9037C20.8759 14.9037 22.7536 14.8352 23.5411 15.141C24.0661 15.3467 24.4705 15.7448 24.6821 16.2643C24.9955 17.0421 24.9232 18.8878 24.9232 19.7474C24.9232 20.6069 24.9955 22.4553 24.6821 23.2305Z" fill="white" fill-opacity="0.3"/>
</g>
<rect x="0.5" y="0.5" width="39" height="39" stroke="#595959"/>
<defs>
<clipPath id="clip0_4_14">
<rect width="12" height="13.5" fill="white" transform="translate(14 13)"/>
</clipPath>
</defs>
</svg>
