<svg width="200" height="204" viewBox="0 0 200 204" fill="none" xmlns="http://www.w3.org/2000/svg">
<circle cx="100" cy="100" r="100" fill="#57E2F5"/>
<path d="M68 103C68.1524 96.905 69.2321 95 75.2222 95C79.7195 95 81.7427 94.1449 85.5556 93.0556C89.1431 92.0305 93.6703 91.3694 97.4444 92.0556C100.959 92.6946 100.574 95.718 102.222 97.7778C105.557 101.946 105 110.044 105 115.5C105 121.56 108 127.9 108 134.5C108 135.762 108.701 142.586 107.444 142.944C104.603 143.756 102.528 145.028 100.778 146.778C97.2454 150.31 93.0916 139.604 93 137.222C92.8748 133.968 94 131.783 94 128.5C94 120.901 85.6498 116.782 79 116C71.2351 115.086 72.9428 105.971 67 103" stroke="#4BC149" stroke-width="3" stroke-linecap="round"/>
<path d="M61 97C76.636 90.5168 95.654 93 112.5 93C117.326 93 125.482 91.4151 130 93.2222C134.597 95.0611 139.592 94.6871 144.111 96.4444C147.131 97.6189 151.267 97 154.5 97C159.304 97 158.078 89.978 159.056 86.5556C159.932 83.4873 162.225 75.6997 160.778 72.4444C156.208 62.1627 143.306 58.3987 137.778 49C136.661 47.102 133.906 45.8197 132.5 43.9444C130.873 41.7755 129.462 38.5902 127 37.2222C121.885 34.3805 116.36 31 110.5 31C105.073 31 101.752 37.6805 96 38C90.0947 38.3281 83.8285 39 77.4445 39C69.8239 39 67.025 41.155 63.5 47.5C61.8597 50.4526 62.9045 54.683 61 57.7778C58.9176 61.1616 55.6743 63.5863 53.7778 67C50.4633 72.9661 44.0999 85.0799 51.5 91C53.8894 92.9115 55.0687 94.6308 58 95.7778C62.2247 97.4309 67.4876 97 72 97" stroke="#4BC149" stroke-width="3" stroke-linecap="round"/>
<path d="M197 105C190.968 105 171.92 102.08 167 107C163.026 110.974 159.714 119.683 154.5 122C149.684 124.14 146.779 126.018 144.778 131.222C142.684 136.667 142.504 140.911 139 145.778C132.544 154.744 122 159.67 122 171.5C122 176.016 125.765 180.125 129 183C131.354 185.093 133 189.678 133 193" stroke="#4BC149" stroke-width="3" stroke-linecap="round"/>
<path d="M10.0571 140.224C11.7045 139.902 13.2666 138.987 14.8379 138.405C16.0009 137.974 17.2825 136.817 18.0422 135.861C19.1763 134.432 20.5159 133.357 21.7744 132.07C22.2729 131.56 22.708 130.975 23.1236 130.398C24.1458 128.978 25.8052 128.189 26.9365 126.893C27.9635 125.717 28.1126 124.074 29.0629 122.904C29.713 122.104 30.5143 121.417 31.072 120.543C31.6672 119.611 32.2693 118.516 32.6119 117.463C32.9758 116.345 32.8534 115.106 32.9565 113.951C33.1959 111.269 33.6873 107.921 32.5019 105.401C32.2946 104.961 32.1476 104.312 31.8053 103.957C31.3218 103.455 30.7805 102.997 30.2801 102.505C29.3043 101.545 28.4111 100.579 27.2078 99.9021C26.2305 99.3523 25.6766 98.7828 25.5287 97.6364C25.351 96.2598 25.9213 96.4202 26.5845 95.4806C26.9047 95.027 27.867 95.0323 28.3297 94.7547C29.257 94.1983 30.0673 93.5266 31.028 93.0462C31.8103 92.6551 32.4222 92.0317 33.2351 91.719C33.7421 91.524 35.4161 91.2995 35.7282 91.785C36.2148 92.542 36.8578 92.9263 37.576 93.5008C38.1825 93.9861 37.7739 96.4094 37.7739 96.8444C37.7739 101.743 37.7739 87.0482 37.7739 82.1501C37.7739 80.2443 37.8803 78.3018 37.7446 76.4014C37.683 75.5389 36.8902 75.8148 36.2194 75.8148C36.0117 75.8148 35.8039 75.8148 35.5962 75.8148C34.9129 75.8148 35.2668 72.884 35.2516 72.4419C35.2434 72.2052 35.024 70.1088 34.6063 70.0075C34.3336 69.9414 33.9655 70.0075 33.6824 70.0075C32.8905 70.0075 32.0986 70.0075 31.3067 70.0075C31.1897 70.0075 30.7733 70.0704 30.7201 69.9488C30.2461 68.8654 30.3674 67.3343 30.2581 66.1873C30.2149 65.7332 30.4249 65.1241 29.8548 65.1241C29.493 65.1241 29.1575 65.256 28.799 65.256C28.491 65.256 28.183 65.256 27.8751 65.256C27.3459 65.256 27.4461 62.0614 27.3398 61.7071C27.2509 61.411 27.0425 61.6924 26.9805 61.3258C26.9362 61.0639 26.9875 60.4452 26.6285 60.3799C26.1244 60.2883 25.5389 60.3726 25.03 60.3726C24.4728 60.3726 23.9155 60.3726 23.3582 60.3726C22.0846 60.3726 21.9465 60.4407 21.9357 58.9647C21.9283 57.9442 22.1823 49.0219 21.7304 49.0219C21.2514 49.0219 20.7723 49.0219 20.2933 49.0219C18.7733 49.0219 17.2345 48.8899 15.7324 48.8899" stroke="#4BC149" stroke-width="3" stroke-linecap="round"/>
<path d="M21.9179 160.18C35.6518 159.905 49.231 157.335 63.0074 157.335C69.2235 157.335 75.4396 157.335 81.6557 157.335C84.4098 157.335 86.8701 158.994 88.7673 160.891C90.8886 163.012 90.2676 163.752 91.0588 166.422C92.0423 169.741 94.2116 174.026 96.5901 176.536C98.4206 178.469 99.8452 180.263 102.279 181.514C104.454 182.633 106.546 183.03 106.546 185.623C106.546 186.962 107.116 189.453 105.835 190.206C104.471 191.009 102.529 192.951 101.726 194.315C100.201 196.908 99.1125 199.682 101.568 202.138" stroke="#4BC149" stroke-width="3" stroke-linecap="round"/>
<path d="M78.0998 6.56824C78.0998 12.7222 77.2108 20.5346 82.0507 25.3746C85.8116 29.1355 93.203 27.9031 98.0124 27.9031C105.735 27.9031 114.963 29.1964 122.548 27.5476C127.846 26.3958 133.053 25.7697 138.509 25.7697C142.547 25.7697 151.854 24.1404 154.905 27.192C157.382 29.6686 160.595 33.9081 160.595 37.5039C160.595 39.7032 160.595 41.9025 160.595 44.1019C160.595 46.9669 162.433 47.7892 163.993 49.9492C165.632 52.219 173.393 53.505 176.24 53.505C179.085 53.505 181.93 53.505 184.774 53.505" stroke="#4BC149" stroke-width="3" stroke-linecap="round"/>
<path d="M73.7184 96.4456C73.7428 97.4202 74.7711 97.0307 75.5648 97.0307C77.7276 97.0307 79.8904 97.0307 82.0532 97.0307C82.1093 97.0307 84.7036 97.0307 83.6786 97.0307C82.0879 97.0307 80.4972 97.0307 78.9065 97.0307C77.8381 97.0307 74.633 97.0307 75.7014 97.0307C78.157 97.0307 80.6113 96.9194 83.0674 96.9137C84.0513 96.9114 85.0352 96.9137 86.0191 96.9137C86.1318 96.9137 86.2444 96.9137 86.3571 96.9137C86.4243 96.9137 86.2228 96.9137 86.1556 96.9137C85.4379 96.9137 84.9996 96.915 84.2312 96.9072C83.0187 96.8948 81.8075 96.8678 80.5969 96.7966C80.5159 96.7919 79.4873 96.7195 79.3096 96.7056C79.1746 96.6951 78.8637 96.7821 78.9065 96.6536C79.0261 96.2949 79.6597 96.5755 80.0378 96.5691C81.5498 96.5435 83.0635 96.5626 84.5758 96.5626C85.3429 96.5626 86.1101 96.5626 86.8772 96.5626C87.0391 96.5626 87.2443 96.5626 86.9553 96.5626C86.3875 96.5626 85.8197 96.5626 85.2519 96.5626C83.9036 96.5626 87.9289 96.2364 89.2698 96.0945C89.5747 96.0622 91.1471 95.8509 89.9849 95.6914C89.1268 95.5736 88.2126 95.5305 87.3453 95.5094C86.5358 95.4896 85.7234 95.5094 84.9138 95.5094C84.7753 95.5094 82.1952 95.4738 83.6005 95.3923C86.2915 95.2363 88.9877 95.2753 91.6818 95.2753C92.4152 95.2753 93.1408 95.2241 93.8727 95.1843C94.1133 95.1712 95.1884 95.3244 95.3681 95.0998C95.4439 95.0049 95.6243 94.5021 95.4071 94.4626C95.1073 94.4081 94.7731 94.4725 94.4839 94.5472C93.9417 94.6871 95.6013 94.4605 96.1612 94.4561C96.7689 94.4514 97.8856 94.2691 98.4757 94.5732C98.7163 94.6971 98.7546 95.4908 98.7618 95.7434C98.7874 96.639 98.7618 97.5391 98.7618 98.435C98.7618 100.676 98.7618 102.917 98.7618 105.157C98.7618 106.585 98.1454 107.801 97.9491 109.175C97.8486 109.879 97.9426 107.754 97.9426 107.043C97.9426 105.386 97.9898 103.727 97.8191 102.076C97.6997 100.922 97.5915 99.8033 97.5915 98.643C97.5915 97.9032 97.6558 97.342 97.1039 96.7901C96.4025 96.0887 95.5608 95.7671 94.5749 95.7434C93.4093 95.7154 92.012 95.6149 90.9666 96.218C90.882 96.2668 89.9485 96.9609 90.1539 97.1477C90.3171 97.2961 90.7132 97.3482 90.8951 97.3818C91.9623 97.5783 93.0577 97.5934 94.1393 97.6093C94.3566 97.6125 97.0177 97.4544 95.5501 97.7848C92.9023 98.381 90.1032 98.8102 87.3974 98.9941C87.1403 99.0116 86.5832 98.9493 86.3246 99.0786C86.0939 99.194 86.8448 99.1072 87.0983 99.0591C88.8496 98.727 90.543 98.433 92.3254 98.292C95.6741 98.0269 85.6043 98.3468 82.2483 98.2009C81.725 98.1782 83.2914 98.0839 83.8151 98.0839C84.9161 98.0839 83.6096 98.245 83.2105 98.318C81.9851 98.542 80.4957 98.3372 79.3421 98.8316C79.2354 98.8773 79.27 98.968 79.1536 99.0396C78.6129 99.3724 77.91 99.4588 77.2942 99.5272C77.0132 99.5584 74.4604 99.7064 75.9159 99.5532C76.9452 99.4449 77.9626 99.3712 78.9976 99.3712C80.6728 99.3712 75.6472 99.3712 73.972 99.3712C73.1623 99.3712 72.3634 99.2542 71.5535 99.2542C71.1521 99.2542 70.7243 99.2098 70.3247 99.2542C70.1488 99.2737 70.1607 99.8931 70.1167 100.047C69.9299 100.701 70.0907 101.653 70.0907 102.323C70.0907 102.77 70.1743 102.992 70.2987 103.415C70.4144 103.808 70.7579 104.051 70.8838 104.429C71.2379 105.491 71.1541 106.884 71.82 107.797C72.3903 108.578 73.1921 108.971 74.0045 109.435C74.9485 109.975 75.5787 110.931 76.345 111.698C76.9379 112.291 78.2322 112.839 79.0106 113.089C80.3415 113.517 81.5721 114.188 82.9634 114.441C83.7829 114.59 84.5671 114.73 85.3949 114.844C85.6813 114.884 88.8771 115.322 88.9252 115.033C88.9723 114.75 84.6682 113.605 83.9581 113.356C83.0718 113.044 82.3994 112.712 81.4551 112.712C80.6618 112.712 79.8965 112.682 79.1211 112.888C78.7175 112.994 78.4985 113.268 78.1589 113.466C77.996 113.561 77.7624 113.542 77.5803 113.531C77.4175 113.522 77.8701 112.917 77.9313 112.842C78.2756 112.421 78.2824 112.113 78.2824 111.6C78.2824 110.687 78.0587 110.242 77.5282 109.526C77.208 109.094 76.7195 108.796 76.41 108.356C76.0867 107.897 75.7431 107.386 75.3568 106.978C75.0416 106.645 74.6729 106.378 74.3556 106.042C73.5387 105.177 73.4844 103.553 73.4844 102.459C73.4844 102.258 73.3786 101.003 73.1853 100.893C72.3616 100.422 72.3743 100.917 72.2556 101.653C72.1301 102.431 72.16 102.496 72.7237 102.934C73.0779 103.209 73.7021 102.35 73.8615 102.063C74.542 100.838 78.1473 101.361 79.2186 101.361C81.0325 101.361 82.8476 101.244 84.6538 101.244C86.4828 101.244 88.3119 101.244 90.1409 101.244C91.9505 101.244 93.7218 101.115 95.4201 100.45C95.8685 100.275 96.3191 100.142 96.7789 100.008C96.9999 99.9439 97.8682 99.8393 97.1819 99.8393C92.1704 99.8393 87.1848 99.6052 82.1767 99.6052C81.7325 99.6052 81.2882 99.6052 80.844 99.6052C79.7886 99.6052 82.9547 99.6052 84.0101 99.6052C86.623 99.6052 89.2239 99.8393 91.8313 99.8393C94.1501 99.8393 96.469 99.8393 98.7878 99.8393C99.4845 99.8393 101.62 100.283 100.868 98.9681C100.803 98.8536 100.305 98.4283 100.29 98.513C100.184 99.0955 101.052 99.782 101.284 100.314C101.707 101.279 102.247 102.117 102.728 103.044C103.043 103.652 103.09 104.278 103.267 104.93C103.681 106.446 103.603 107.926 103.683 109.487C103.782 111.411 103.911 113.279 103.911 115.222C103.911 117.285 103.794 119.34 103.794 121.398C103.794 123.022 103.733 124.675 103.963 126.287C104.224 128.116 104.492 130.137 105.257 131.833C105.731 132.885 106.124 133.967 106.589 135.025C106.861 135.643 107.303 136.219 107.474 136.878C107.666 137.619 107.656 138.333 107.656 139.095C107.656 139.814 107.6 141.145 106.954 141.617C105.94 142.358 104.417 141.973 103.326 142.579C102.668 142.945 101.983 143.273 101.336 143.633C100.803 143.929 99.7865 144.042 99.3469 143.464C99.1139 143.157 98.8589 142.934 98.5797 142.67C98.3657 142.468 97.8175 142.452 97.52 142.319C96.4503 141.844 96.4213 141.25 96.4213 140.154C96.4213 138.995 96.5383 137.815 96.5383 136.676C96.5383 136.178 96.5383 135.679 96.5383 135.181C96.5383 134.839 96.7266 133.939 96.2522 134.414C95.7866 134.879 94.8923 135.865 94.7894 136.585C94.7488 136.869 94.7829 137.182 94.7829 137.469C94.7829 137.528 94.7829 137.964 94.7829 137.729C94.7829 137.09 94.7737 136.455 94.8414 135.818C94.8972 135.294 94.8186 134.207 95.082 133.718C95.2752 133.359 95.3819 133.002 95.4851 132.606C95.7411 131.625 95.5852 132.407 95.4851 132.918C95.2454 134.142 94.5489 135.209 94.5489 136.468C94.5489 137.14 94.5489 137.812 94.5489 138.484C94.5489 138.865 94.5489 139.246 94.5489 139.628C94.5489 140.113 94.5083 140.262 94.6074 139.647C94.7345 138.859 94.7104 138.05 94.8349 137.261C95.0243 136.062 95.6719 134.917 96.3043 133.9C96.8728 132.985 97.2927 132.081 97.6435 131.078C97.7843 130.676 97.8972 130.176 97.8191 129.746C97.7209 129.206 96.8524 130.219 96.8114 130.266C96.3817 130.754 95.4851 131.65 95.4851 132.372C95.4851 132.795 95.4894 131.522 95.5566 131.104C95.6273 130.665 95.9303 130.232 95.9532 129.798C95.97 129.479 95.9532 129.155 95.9532 128.835C95.9532 128.109 96.4213 127.569 96.4213 126.866C96.4213 125.717 96.6446 124.418 96.0052 123.413C95.5339 122.673 94.544 122.047 94.2043 121.255C94.0427 120.878 93.4886 120.59 93.2096 120.26C92.8327 119.815 92.6139 119.275 92.1369 118.908C91.2537 118.228 90.473 117.361 89.6858 116.574C89.019 115.907 87.9566 116.211 87.2283 115.521C86.5684 114.895 85.9868 114.124 85.1284 113.713C83.6128 112.988 81.9512 112.313 80.909 110.892C80.5872 110.453 80.4173 109.915 80.0898 109.494C79.8188 109.145 79.459 108.815 79.2186 108.473C78.9025 108.024 78.6788 107.725 78.2824 107.329C77.7253 106.772 77.3855 106.036 76.8521 105.482C76.3043 104.914 74.9332 103.888 76.566 103.727C77.9054 103.595 78.9732 104.052 80.2718 104.052C81.869 104.052 83.4662 104.052 85.0634 104.052C87.458 104.052 89.8527 104.052 92.2474 104.052C93.0075 104.052 94.0843 104.209 94.7829 103.909C95.2254 103.72 95.5619 103.297 95.9532 103.09C96.1752 102.972 96.1872 102.507 96.1872 102.297C96.1872 101.993 96.2837 101.712 95.8817 101.731C95.1688 101.765 94.0923 101.857 93.4566 102.238C93.1853 102.401 92.0284 103.353 92.54 103.409C93.9617 103.563 95.4201 103.467 96.8504 103.467C97.9585 103.467 99.0423 103.251 100.14 103.129C100.528 103.086 101.332 102.979 101.635 103.24C102.176 103.702 102.006 105.106 101.752 105.684C101.402 106.486 101.8 107.704 102.012 108.473C102.238 109.29 102.156 110.21 102.156 111.048C102.156 112.209 102.156 113.371 102.156 114.532C102.156 114.83 101.971 117.154 102.182 117.25C102.579 117.431 103.065 113.885 103.072 113.804C103.304 111.327 103.153 108.859 103.098 106.38C103.065 104.86 103.383 103.187 102.201 102.004C100.842 100.646 99.5257 103.721 99.4704 104.8C99.4324 105.541 99.4748 106.253 99.6395 106.978C99.7548 107.485 99.8411 107.455 100.049 106.926C100.229 106.467 100.537 105.771 99.932 105.574C98.8267 105.212 97.4915 105.534 96.3433 105.43C94.626 105.276 92.9242 105.319 91.2072 105.196C88.674 105.015 86.0707 104.89 83.5355 104.871C82.254 104.862 80.4859 104.782 79.3746 105.482C79.2653 105.551 78.3439 106.122 78.744 106.152C79.8128 106.231 80.9036 106.268 81.9752 106.276C83.7694 106.288 85.5641 106.276 87.3583 106.276C89.8505 106.276 92.3427 106.276 94.8349 106.276C96.4097 106.276 98.0488 106.271 99.6005 106.568C100.624 106.764 98.5824 107.13 98.3457 107.16C97.2722 107.294 96.1556 107.212 95.0755 107.212C93.0471 107.212 91.0186 107.212 88.9902 107.212C87.0401 107.212 85.0562 107.257 83.1064 107.335C82.6614 107.353 80.6575 107.523 80.7919 108.33C80.9107 109.043 83.9296 109.275 84.4262 109.357C85.2412 109.493 86.0298 109.552 86.8512 109.552C88.6673 109.552 90.4833 109.552 92.2994 109.552C94.9 109.552 97.5005 109.552 100.101 109.552C101.391 109.552 98.1131 110.855 97.8451 110.924C96.6953 111.219 95.3983 111.074 94.2238 111.074C92.9842 111.074 91.7446 111.074 90.505 111.074C88.0548 111.074 85.6092 111.191 83.1585 111.191C83.1146 111.191 82.0833 111.112 82.3393 111.334C83.0124 111.917 84.3949 111.974 85.2259 112.114C87.0055 112.414 88.9496 112.422 90.7521 112.471C92.8695 112.529 94.9783 112.595 97.0974 112.595C98.4603 112.595 99.9013 112.656 101.245 112.888C101.572 112.944 101.666 113.062 101.297 113.232C99.854 113.898 98.1845 113.897 96.6293 113.973C94.6867 114.069 92.7485 114.094 90.8041 114.116C90.3695 114.121 89.8256 114.138 89.4128 114.298C89.2778 114.351 88.835 114.58 89.1267 114.701C90.8583 115.423 93.0089 115.435 94.8479 115.781C95.3599 115.877 97.7459 115.81 98.0986 116.398C98.14 116.467 97.945 116.456 97.8646 116.457C97.2271 116.466 96.5906 116.455 95.9532 116.483C95.2375 116.515 93.0979 116.691 93.8142 116.691C96.3472 116.691 98.7909 116.015 101.297 115.742C101.657 115.703 104.442 115.339 102.591 115.937C100.566 116.591 98.282 116.534 96.1742 116.665C95.2904 116.72 94.4002 116.691 93.5152 116.691C93.4271 116.691 91.5062 116.506 92.1434 117.016C92.8718 117.599 93.6839 117.861 94.6009 117.861C95.8246 117.861 97.0401 117.978 98.2677 117.978C99.0869 117.978 99.906 117.978 100.725 117.978C101.215 117.978 102.243 118.082 102.598 118.355C103.025 118.684 100.38 119.921 100.14 119.968C98.5563 120.275 96.8302 120.085 95.225 120.085C94.7909 120.085 92.9105 119.742 92.9105 120.436C92.9105 120.818 93.3859 120.942 93.6777 121.079C94.5723 121.499 95.4369 121.791 96.4213 121.898C97.8233 122.051 99.2707 121.957 100.68 121.957C101.549 121.957 101.982 121.959 102.637 122.497C103.048 122.834 103.883 123.664 103.183 124.174C102.712 124.516 101.913 124.556 101.362 124.74C100.764 124.939 100.123 125.113 99.5419 125.351C99.025 125.562 99.8837 125.733 100.03 125.754C100.753 125.857 102.003 126.038 102.598 125.494C102.919 125.199 102.917 124.593 102.845 124.193C102.739 123.611 101.493 123.829 101.115 123.829C100.041 123.829 98.1517 123.57 97.3835 124.558C97.1777 124.822 98.0496 124.649 98.3847 124.649C98.7257 124.649 100.211 124.425 100.277 125.013C100.523 127.229 97.7446 128.886 96.1612 129.856C95.5402 130.237 95.4852 130.302 96.3433 130.214C97.9004 130.054 98.9246 129.509 100.29 128.842C100.642 128.67 101.767 128.317 101.388 128.419C99.337 128.975 97.2255 129.391 95.238 130.162C95.1838 130.183 95.0382 130.201 95.082 130.24C95.3168 130.445 95.7062 130.247 96.0182 130.24C97.6329 130.2 99.2527 130.121 100.868 130.149C102.884 130.183 99.7282 131.735 99.2624 131.924C99.2434 131.931 97.899 132.534 97.7476 132.437C97.5262 132.296 98.1953 132.163 98.4237 132.034C99.1672 131.614 99.8268 131.248 100.569 130.812C100.643 130.768 103.918 128.933 102.78 128.868C102.593 128.857 101.579 128.992 101.479 128.809C101.247 128.384 101.599 127.535 101.674 127.1C101.791 126.43 101.038 128.311 100.855 128.965C100.699 129.524 100.658 130.123 101.395 130.123C102.966 130.123 104.178 128.844 105.289 127.899C105.427 127.782 105.666 127.328 105.666 127.509C105.666 127.928 105.56 128.375 105.497 128.783C104.95 132.332 105.081 135.93 105.081 139.511C105.081 140.298 105.143 140.617 104.548 141.149C103.913 141.717 103.251 141.617 102.448 141.617C101.332 141.617 100.021 142.082 99.0608 141.383C98.158 140.727 98.2937 139.349 98.2937 138.406C98.2937 137.878 98.3088 137.347 98.2937 136.819C98.2821 136.413 97.9404 135.624 98.2547 135.272C99.029 134.405 100.185 134.012 101.011 133.217C101.201 133.035 101.526 132.883 101.746 132.73C101.945 132.592 102.461 132.034 102.682 132.034C103.211 132.034 103.326 133.878 103.326 134.303C103.326 135.101 103.326 135.898 103.326 136.696C103.326 137.023 103.503 139.502 103.131 139.511C102.724 139.52 99.6943 139.758 99.5549 139.368C99.3968 138.925 99.2228 136.778 99.6655 136.403C100.1 136.035 100.899 135.883 101.453 135.883C102.022 135.883 101.78 135.982 101.479 136.39C101.246 136.707 100.937 136.955 100.706 137.274C100.458 137.617 100.27 138.142 100.927 137.742C101.071 137.655 101.292 137.287 101.453 137.287C101.691 137.287 101.57 138.185 101.57 138.34" stroke="#4BC149" stroke-width="3" stroke-linecap="round"/>
<path d="M100.037 146.231C99.0821 145.508 96.9678 144.696 96.9678 143.29C96.9678 140.422 96.9678 145.613 96.9678 144.441" stroke="#4BC149" stroke-width="3" stroke-linecap="round"/>
<path d="M99.2699 129.094C99.1087 128.342 97.8766 124.287 96.9678 124.234C95.9188 124.172 95.5283 126.107 95.4473 126.877C95.3005 128.271 96.4018 128.379 97.5646 128.696C97.6182 128.71 98.063 126.083 96.5841 125.754C95.8616 125.594 95.4191 125.001 94.6089 125.001C94.3547 125.001 92.5069 125.057 93.131 124.745" stroke="#4BC149" stroke-width="3" stroke-linecap="round"/>
<path d="M75.9933 108.119C74.5308 108.084 73.249 107.228 72.7249 105.76C72.3911 104.826 72.7671 102.571 72.4691 105.22C72.3293 106.463 72.1565 107.734 72.1565 108.986C72.1565 109.405 72.2348 109.935 72.5259 109.284C73.155 107.878 73.4354 105.587 73.4354 104.027" stroke="#4BC149" stroke-width="3" stroke-linecap="round"/>
<path d="M98 77C86.6402 75.7532 52.3835 75.8209 63.7778 74.9444C81.3632 73.5917 99.0438 74 116.667 74C119.421 74 113.774 74.3441 113.333 74.4444C109.077 75.4144 105.192 77.3769 101.444 79.5556C100.015 80.3864 93.8576 82.9185 93.4444 84.7778C93.0135 86.7171 97.1909 83.3191 99.1667 83.1111C102.101 82.8023 105.103 83.1899 108 82.5C109.605 82.1179 101.593 82.1829 100.889 82.2222C89.6627 82.8503 55.9229 83 67.1667 83C85.1111 83 103.056 83 121 83C121.075 83 112.966 84 110 84" stroke="#4BC149" stroke-width="3" stroke-linecap="round"/>
<path d="M119 91C114.725 82.4509 106.262 76.1218 99.5 69.5556C94.5083 64.7086 89.727 61.0794 84 57.5C78.5948 54.1217 72.4463 59.6276 73.0556 65.1111C74.0223 73.812 86.154 80.4944 94.2222 78.7778C97.2968 78.1236 108.144 67 102 67" stroke="#4BC149" stroke-width="3" stroke-linecap="round"/>
<path d="M111 71C98.8536 63.7122 87.1834 51.6582 73 48.5556C66.986 47.24 55.6243 53 66.8333 53C80.6079 53 94.3937 52.8352 108.167 53.0556C110.095 53.0864 124.383 51.9196 125.889 54.5556C129.49 60.8571 119.434 63.5962 115.556 63.8889C111.873 64.1668 108.136 64 104.444 64C100.706 64 110.082 64.1819 110.667 64.2222C115.953 64.5868 123.572 63.4887 128.556 65.2222C128.975 65.3682 121.882 66 121 66C120.152 66 111.794 66.3359 111.889 66.4444C112.75 67.4282 114.913 67.5267 115 69C115.425 76.2269 132.96 78.04 138 79" stroke="#4BC149" stroke-width="3" stroke-linecap="round"/>
<path d="M67 89C67 83.8087 67.175 78.5764 66.9445 73.3889C66.6227 66.149 64.6975 60.1715 70.2778 54.4444C74.423 50.1901 81.7825 44.3213 87.8333 43.1111C92.2625 42.2253 89.2728 52.2616 88.5556 53.9444C85.8231 60.3551 81.6638 66.3443 77.7222 72.0556C77.6717 72.1287 71.2251 80.2753 73.6111 80C78.039 79.4891 82.7919 75.6567 86.8889 74.0556C93.3667 71.524 100.213 69.9064 107.056 68.7222C111.33 67.9824 107.586 69.4488 106.444 70C105.056 70.6703 100.68 71.8889 102.222 71.8889C117.422 71.8889 132.705 71 147.944 71C157.048 71 153.397 70.7949 148.056 74C145.88 75.3055 142 77.549 142 80.5C142 82.5893 140.15 84.862 138.944 86.4444C137.106 88.8581 133.546 89 138.111 89C157.806 89 114.669 90 134.778 90C142.841 90 166.858 90.7184 158.889 91.9444C155.037 92.5371 149.603 92.5415 145.722 91.9444C143.904 91.6647 156.27 83.4766 145.111 83.0556C142.743 82.9662 123.338 83 134.556 83C145.591 83 132.073 85.0633 128.667 85.5C119.094 86.7272 132.992 83.4305 135.556 82.4444C140.001 80.7347 153.302 76.9512 140.944 78.1667C128.981 79.3434 117.568 81 105.5 81C101.27 81 110.143 81 111.222 81C116.185 81 101.296 81 96.3333 81C93.5867 81 95.8987 80.668 97.1667 80.1667C102.874 77.9102 108.382 75.3254 114.5 74.3333C114.743 74.294 123.164 74 120.778 74C112.5 74 104.222 74 95.9445 74C86.6667 74 77.3889 74 68.1111 74C67.314 74 64.9351 74.0148 65.7222 73.8889C67.455 73.6116 73.541 72.9951 74.0556 72.9444C84.5747 71.9098 95.1217 71.2585 105.667 70.5556C107.51 70.4326 114.864 71.0222 116.667 69.4444C117.204 68.9742 94.4245 56.311 92.0556 55.3333C90.2861 54.6031 85.2406 54.0063 86.8333 52.9444C89.307 51.2954 93.0423 50.4076 95.7778 49.4444C96.2601 49.2746 113.089 43.5518 109.667 41.5556C104.768 38.6978 92.2661 43.7908 87.1111 45C84.9401 45.5093 84.2052 45.9627 86.8889 46C91.4805 46.0638 96.0748 45.9611 100.667 46C107.376 46.0569 104.895 46.2361 103.222 50C102.602 51.3957 114.913 51 115.889 51C117.63 51 119.37 51 121.111 51C121.745 51 119.693 51.2019 119.222 50.7778C117.879 49.5685 120.556 48.1248 120.556 47.2222C120.556 45.6292 115.921 48.5921 116.667 50C118.449 53.3665 135.393 50.964 138.667 51C147.124 51.0929 130.398 52.9888 128.778 53C126.406 53.0164 114.588 52.9755 115.667 53C116.725 53.0241 126.797 53.7774 125.778 55C122.184 59.3127 112.894 57.0378 108.111 59C102.787 61.1844 119.918 58.2728 125.333 60.2222C128.335 61.3029 119.076 61.6351 115.889 61.7778C106.754 62.1868 97.5852 62 88.4445 62C74.8418 62 90.338 61.946 94.4445 62C95.927 62.0195 98.1891 62.4974 95 62.7778C86.5991 63.5163 77.9747 63 69.5556 63C63.8552 63 55.0327 61.4196 49.4445 63.2222C42.4533 65.4774 64.0078 65.232 71.3333 65.7778C82.6908 66.6239 94.1076 66.8987 105.444 68C109.189 68.3638 110.993 68.951 106.778 69C94.1329 69.147 81.149 67.9505 68.5556 69C56.0663 70.0408 93.5969 70.1013 106.111 70.7778C116.824 71.3569 99.3815 70.9713 96.8889 71C90.5448 71.0729 95.4422 72.5287 97.7778 74.7778C101.153 78.0284 89.5356 79.2553 87.6667 79.7778C83.3104 80.9957 84.1473 80.4962 84 83C83.7735 86.8501 71.563 86.9355 69.1111 87C63.128 87.1574 80.3864 87.4784 80.6667 86.7778C80.7126 86.663 72.2315 83.3854 72.1111 83.3333C68.2416 81.6585 64.475 79.5002 60.4445 78.2222C58.0695 77.4692 65.245 78 66.3333 78C69.1906 78 63.1557 80.4221 62 81C56.6438 83.6781 64.5421 82 67.4445 82C77.9939 82 90.7927 79.8614 101 82.7778C105.109 83.9519 109.639 82.9511 112 80" stroke="#4BC149" stroke-width="3" stroke-linecap="round"/>
<path d="M175 130C166.905 133.778 156.982 142.039 154.778 151.222C154.104 154.029 166.798 147.243 167.778 146.722C172.447 144.24 188.598 136.051 186.944 128.611C186.253 125.499 173.856 135.769 173.222 136.444C166.176 143.964 156.232 155.87 156 166.778C155.897 171.62 161.308 165.975 162.444 164.889C165.436 162.031 194.227 135.341 189.056 130.778C184.467 126.729 171.84 132.361 167.667 134.667C162.011 137.791 150.437 143.079 148.167 149.889C145.89 156.719 156.423 155.807 151.778 162.222C149.902 164.812 142.418 170.708 145.278 169.278C146.088 168.873 150.481 165.945 148.444 167.611C147.832 168.112 143.9 171.686 145 172C147.495 172.713 143.83 178.958 143.444 180.333C142.479 183.771 143.887 181.502 145 180.5C147.817 177.965 142.555 180.84 141.889 181.111C140.845 181.535 143.735 173.011 143.833 171.778C144.103 168.405 132.082 170 129.944 170C129.082 170 118.415 170 121.667 170C127.011 170 135.612 168.2 140.556 170.222C141 170.404 140.869 171.02 140.611 171.278C138.948 172.941 143.345 167.441 144.889 165.667C149.408 160.474 163.903 145.8 158.722 150.333C152.764 155.547 146.777 161.517 141.667 167.556C138.63 171.145 148.23 160.807 151.778 157.722C156.128 153.939 160.516 150.119 164.444 145.889C170.925 138.91 163.123 144.675 161.111 146.333C156.659 150.002 152.377 153.627 147.111 156.111C142.72 158.182 143.434 156.625 146.111 153.889C152.364 147.497 159.647 142.242 165.944 135.944C166.117 135.772 157.963 141.61 158.278 138.778C158.998 132.296 169.354 125.336 173.444 121.111C179.683 114.667 169.392 117.046 164.889 117C155.828 116.908 167.13 115.204 169.778 115C174.836 114.611 175.43 113.383 170.778 116C168.682 117.179 159.5 122.024 160.611 121.944C165.83 121.572 170.944 120.655 176.056 119.556C177.151 119.32 183.004 118.799 183.944 117.389C184.854 116.025 187.289 111.756 186.556 113.222C185.24 115.854 175.381 118.194 172.667 118C172.413 117.982 177.88 112.952 178.889 112.556C186.72 109.479 168.666 120.31 167.556 120.944C164.619 122.622 150.392 128.674 160 129C164.239 129.144 150.519 134.709 148.5 135.778C146.192 136.999 144.795 139.319 142.778 141C136.837 145.95 148.491 143.657 151.778 144.222C158.117 145.312 141.117 151.466 135.444 154.5C132.567 156.039 124.051 158.88 131.889 159C133.51 159.025 148.526 159.68 145.556 161.333C139.807 164.532 132.683 165.18 126.444 167C124.24 167.643 131.074 166.645 133.333 167.056C135.042 167.366 127.859 173.995 127.222 174.556C122.26 178.919 130.888 178.514 134.833 179.5C136.895 180.015 140.39 180.536 141.778 182.444C142.223 183.057 141.773 183.798 142.722 183.944C143.662 184.089 150.761 183.78 148.111 184.222C146.372 184.512 137.478 186.502 142.333 183.333C152.188 176.9 162.272 169.462 168.389 159.111C172.934 151.42 160.736 158.397 165.611 151.389C166.928 149.495 182.098 133.143 179.889 131.444C178.19 130.137 165.977 133.586 172.556 130.333C176.498 128.384 187.778 123.86 188.722 118.667C188.992 117.181 179.707 118.81 178.833 118.944C175.961 119.386 184.428 117.066 187.333 117C189.974 116.94 186.785 119.215 186 120" stroke="#4BC149" stroke-width="3" stroke-linecap="round"/>
<path d="M83 181C78.6674 178.473 67.2544 167.929 61.5556 171.556C53.108 176.931 75.9604 176.951 77.1667 176.889C80.5003 176.718 93.0549 176.643 92.8889 171C92.6986 164.529 79.5864 164.369 75.6667 164.222C68.885 163.968 64.7378 165.571 62.2222 172C61.6701 173.411 60.0604 177.273 61.4444 178.778C64.9736 182.614 79.1429 179.989 74.5 172.444C71.3535 167.331 64.292 165.534 58.6667 166.111C57.113 166.27 52.2584 167.794 53.2222 170.444C54.6203 174.289 76.6115 171.688 64.6111 169.611C57.5069 168.382 49.4565 168.616 42.2778 169.111C41.1921 169.186 35.1131 171.657 37.6111 170.889C41.0529 169.83 44.1614 166.104 38.5556 166C37.4216 165.979 29.0914 165.381 29.6667 167.778C30.3183 170.493 38.1202 170 39.8889 170C46.5279 170 34.7037 167.021 35.2222 168C36.9738 171.308 52.97 171.62 53.8889 167.944C55.46 161.66 40.8937 161.328 42.6111 164C44.1443 166.385 48.0923 167.317 50.6667 167.889C51.9256 168.169 44.6743 168.021 43.6111 168.111C42.6521 168.193 35.3074 170.587 39.7778 170.944C46.3345 171.469 53.0949 171 59.6667 171C77.4602 171 58.541 173.205 59.4444 177C60.3495 180.801 78.7617 182.679 81.8889 183.333C87.7684 184.564 74.2238 184.512 72.1111 185C68.4638 185.842 63.1725 183 58.6111 183C51.4728 183 57.9511 183.062 54.8333 179.944C49.6789 174.79 48.685 179.111 53.2222 183C57.9354 187.04 63.8777 190.053 69.8889 191.556C69.9651 191.575 74.8801 192.764 73.7778 191C71.7678 187.784 61.2525 191.231 64.8889 193C67.9082 194.469 84 196.188 84 191C84 189.133 78.6964 194.759 84.1667 192.389C84.9572 192.046 91.7291 189.01 90.7222 187.5C89.2013 185.219 83.2923 186.06 81.1667 186.556C78.523 187.172 77.0165 188.925 79.6667 190.944C82.7851 193.32 87.7464 193.349 91.4444 192.833C95.1232 192.32 98.7805 187.528 93.6667 189.611C90.0017 191.104 93.675 188.745 94.9445 186.444C99.0019 179.09 92.5821 177.546 86.2222 178C84.0675 178.154 82.8282 184.479 85 178.778C87.8166 171.384 79.639 174.583 78.8889 178.333C78.3333 181.111 82.0898 173.461 82.5556 170.667C82.7407 169.556 82 172.874 82 174" stroke="#4BC149" stroke-width="3" stroke-linecap="round"/>
<path d="M13 127C19.9858 122.153 22 118.862 22 110.667C22 109.105 20.611 113.488 20.2222 115C19.6611 117.182 20.3367 118.52 19.4444 115.333C17.2226 107.398 17.5669 98.229 18 90C18.1043 88.018 25.4287 86.8481 26.7778 84C28.8371 79.6526 22.3228 72.203 18.2222 71.5556C13.6911 70.8401 8.72637 72.1648 4.1111 72C3.61576 71.9823 4.99999 70.4923 4.99999 70.6667C4.99999 72.6625 7.15182 88.123 11.2222 84.3333C14.0661 81.6856 16.2858 77.5367 15.9444 73.6111C15.8768 72.8329 14.4671 68.1403 13 69.4444C12.5497 69.8447 10.7295 74.1659 11.2222 74.1111C13.7675 73.8283 14.1945 65.3718 14.5 63.7222C14.9984 61.0307 13.0231 67.407 14.5555 57.5556C14.7787 56.121 16.962 51.9269 15.3889 53.5C13.3874 55.5015 10.4023 57.2374 9.44444 60.1111C9.22895 60.7576 10.3154 58.9843 10.9444 58.7222C12.3855 58.1218 12 61.1214 12 61.6667C12 65.8842 11.5218 70.5101 13 74.5556C14.1997 77.8391 17.6613 78.1326 20.5555 76.7778C20.9574 76.5897 22.7934 74.986 20.7222 75.8333C17.6775 77.0789 15.8112 80.3695 14.0555 82.9444C12.8484 84.715 11.7233 86.7746 10.2222 88.3333C8.95252 89.6519 11.8791 86.1579 12.1111 86C13.1616 85.2851 20.2118 80.1157 18.3889 84.1667C16.9737 87.3115 15.1253 90.7636 12.6667 93.2222C12.013 93.8759 14.581 89.6253 14.7778 88.4444C15.482 84.2188 8.89608 90.188 7.6111 90.8889C2.5061 93.6734 6.64187 92.1456 9.33333 93.2222C9.66966 93.3568 -0.709871 107.638 7.72222 100.611C7.98239 100.394 4.14977 102.507 4.66666 102.778C6.30149 103.634 22.1216 105.116 20.1667 106.611C17.1078 108.95 12.5512 109.671 9.83333 112.389C9.26788 112.954 15.7731 112.852 16.5555 113.222C18.944 114.354 5.48193 120.34 10.2222 121.222C11.0783 121.382 17.673 122.002 16.1111 123.222C14.7495 124.286 7.49954 125.39 7.16666 126.556C6.65918 128.332 15.3566 129.965 16.5555 131C17.9432 132.198 14.5424 133.889 13.6667 133.889C13.3102 133.889 15.2598 131.369 15.4444 131C16.9533 127.982 14.6067 125.827 12 124.444C7.41992 122.016 5.7761 122.736 6.49999 116.944C6.52452 116.748 7.33773 112.653 6.77777 112.333C6.44736 112.145 5.79177 115.317 6.44444 115.111C10.1 113.957 13.1808 102.363 14.3333 99.1111C15.9913 94.4332 15 100.47 15 102.444C15 108.427 18.1115 101.945 19.3333 99.4444C20.9743 96.0861 23.8027 89.4733 22.9444 85.6111C22.6572 84.3187 21.5168 85.8876 22.1111 86.3333C23.9405 87.7054 24.8858 77.8272 25 80.1111C25.2089 84.2883 26.3698 84.3446 30 86.5C30.671 86.8984 36.1945 89.1667 33.7778 90.7778C33.5091 90.9569 31.4963 85.0035 31.2222 84.4444C31.0243 84.0408 30.3 82.2222 29.5555 82.2222C28.8993 82.2222 29 84.7674 29 84.1111C29 82.5011 29.2216 74.8365 27 74.4444C25.6756 74.2107 25.7944 77.8894 26.6667 78.4444C28.8289 79.8204 30.9323 76.8624 28.8333 78.3889C26.6601 79.9694 22.9556 86.9 28.5555 84.3333C31.4114 83.0244 33 83.2865 33 80" stroke="#4BC149" stroke-width="3" stroke-linecap="round"/>
<path d="M166 41C167.819 43.9839 170.987 50.0395 173 44" stroke="#4BC149" stroke-width="3" stroke-linecap="round"/>
<path d="M172 44C169.879 41.9306 166.949 40.1088 165.5 37.5C164.741 36.1344 164.858 34.6165 164 33.2222C162.089 30.1175 161.427 27.9358 158 26.2222C149.476 21.9604 139.936 21 130.5 21C122.037 21 96.6481 21 105.111 21C108.916 21 108.21 14.8949 102 18C96.535 20.7325 107.657 21.0542 109.167 20.8333C117.924 19.5518 106.918 14.8231 104 14.4444C101.796 14.1584 93.4312 12.6295 94.0556 17C94.5826 20.6897 99.2615 18.0632 99.7778 15.6111C100.319 13.0385 92.8818 13.5834 91.4444 14.2222C89.0581 15.2828 97.5079 14.6724 99.1111 12.6111C99.7377 11.8055 97.1316 12 96.1111 12C94.059 12 90.2029 11.5613 88.4444 13C85.6836 15.2588 96.092 16.9302 97.1667 16.7222C102.264 15.7356 99.7755 5.35591 96.2222 3.66666C92.5996 1.94442 86.7599 5.42197 86.1667 9.27777C85.8991 11.0166 89.1856 8.42734 87.5556 7.66666C85.8857 6.8874 87.3391 9.64977 88.8889 10.2222C94.5566 12.3157 101.099 13.0664 107.111 12.7778C109.315 12.672 114.879 9.60098 111.444 10.6111C110.681 10.8356 107.385 13.0444 109.667 13.7778C111.086 14.2339 118.501 14.4918 115.667 11.5C113.86 9.59277 110.578 8.96488 108.056 9.16666C104.914 9.41802 113.994 11.4246 117.111 11.8889C120.502 12.3939 125.514 13.5514 129 12.5556C130.616 12.0939 124.986 11.0165 124.667 11C121.154 10.8183 122.838 8.59491 119.778 7.61111C117.804 6.97661 110.333 5.71095 116.556 7.88889C122.813 10.0792 129.134 11.9743 135.444 14C138.123 14.8598 146.063 16.3177 143.333 17C137.663 18.4175 128.984 17.3787 123.222 16.5556C122.692 16.4797 135.556 18.7835 135.556 18.7778C135.556 15.0675 118.054 13.1824 115.389 13.0556C113.262 12.9543 111.129 13 109 13C105.086 13 100.903 12.9943 97.2222 14.5C93.9955 15.82 96.5556 14.6911 96.5556 12.4444C96.5556 11.7147 94.1111 11.7352 94.1111 12.5556C94.1111 14.637 106.317 14.7117 106.611 13.3889C107.014 11.5766 87.5353 8.74255 86.5 12.0556C85.5618 15.0579 85.928 17.9884 88.7778 19.7778C90.595 20.9188 92.5858 20.9723 94.6667 21C94.9292 21.0035 100.367 21.1556 100.333 21.2222C98.2868 25.3152 82.4494 25.1099 86.8889 24C92.4243 22.6161 109.595 22 103.889 22C98.8116 22 85.1242 14.7957 90.1667 15.3889C93.2677 15.7537 97.255 18.3846 99.8889 19.6667C106.979 23.1179 114.035 26.6685 121.556 29.1111C125.82 30.496 123.876 29.5651 125.611 27.4444C128.747 23.6117 131.897 22.7022 135.444 20.4444C140.311 17.3477 148.345 20.3023 152.833 23.4444C154.452 24.5774 156.101 25.7142 157.778 26.7778C160.235 28.3362 159.535 29.5797 161 31.7778C163.774 35.9381 166.642 38.8511 171.556 39C174 39.0741 177 41.9173 177 44.5C177 47.6217 166.305 48 172.556 48C174.324 48 181.697 47.06 182.556 48.7778C182.651 48.9695 172.694 48.1156 172 48" stroke="#4BC149" stroke-width="3" stroke-linecap="round"/>
</svg>
