<svg width="178" height="164" viewBox="0 0 178 164" fill="none" xmlns="http://www.w3.org/2000/svg">
<line x1="1.18868" y1="131.805" x2="65.4674" y2="55.201" stroke="black"/>
<line x1="177.466" y1="132.448" x2="113.187" y2="55.8437" stroke="black"/>
<circle cx="89.7101" cy="32.8336" r="32.5" fill="#727070"/>
<line x1="90.2101" y1="65.3336" x2="90.2101" y2="163.137" stroke="black"/>
<ellipse cx="78.2084" cy="22.407" rx="3.78968" ry="3.86117" fill="#4BC149"/>
<ellipse cx="101.518" cy="22.407" rx="3.78968" ry="3.86117" fill="#4BC149"/>
<path d="M70.2716 38.9957C70.2716 39.8517 70.2108 40.8175 70.8515 41.4984C72.2832 43.0195 74.0705 43.6927 75.9203 44.6365C78.3475 45.8749 81.1769 46.5374 83.7936 47.2583C86.4254 47.9834 89.4607 48.1324 92.1833 48.1481C93.8304 48.1577 95.4778 48.1481 97.125 48.1481C98.4502 48.1481 100.127 48.4434 101.312 47.6953C101.896 47.3261 102.385 46.8178 102.941 46.4082C103.877 45.7185 104.898 45.1611 105.848 44.4935C107.058 43.644 108.166 42.589 108.653 41.1647C108.999 40.1526 109.053 38.971 109.487 37.9947C109.629 37.6756 109.579 37.0031 109.884 36.8506" stroke="#4BC149" stroke-width="3" stroke-linecap="round"/>
<path d="M90.0887 26.4898C89.8909 29.1235 89.5501 31.7887 89.5501 34.4347C89.5501 34.8589 89.5185 35.2911 89.6174 35.7064C89.8107 36.5181 89.6542 37.3789 89.8194 38.2051" stroke="#4BC149" stroke-width="3" stroke-linecap="round"/>
</svg>
