<svg width="198" height="102" viewBox="0 0 198 102" fill="none" xmlns="http://www.w3.org/2000/svg">
<ellipse cx="98.7913" cy="75.8594" rx="98.4544" ry="26.0164" fill="#0047FF"/>
<ellipse cx="98.7913" cy="75.8594" rx="21.4356" ry="7.3381" fill="black"/>
<path d="M115.264 17.8504C115.004 17.8683 114.809 17.8792 114.697 17.8792C114.47 17.8792 114.886 17.82 115.264 17.8504C115.457 17.866 115.641 17.9049 115.723 17.9872C116.05 18.3138 115.74 19.1393 115.858 19.5528C116.204 20.7646 116.393 21.3237 115.723 22.7379C115.139 23.9707 115.68 25.3603 115.075 26.5709C114.569 27.5828 113.887 28.2713 113.887 29.5402V36.0995C113.887 38.1923 114.859 40.323 114.859 42.4158C114.859 43.2449 114.982 48.6777 115.642 49.1911C117.298 50.4791 125.736 49.461 127.654 49.461C130.228 49.461 132.678 49.5313 135.023 48.4893C137.071 47.5789 139.04 46.9016 141.204 46.4378C142.379 46.1861 145.248 45.8587 146.198 45.3311C147.101 44.8296 147.621 43.6156 148.492 43.2526C149.462 42.8488 151.233 42.3842 151.786 41.4171C153.048 39.2082 154.847 37.938 155.214 35.3707C155.497 33.3848 157.03 30.8648 158.102 29.1623C159.346 27.187 158.911 21.6574 157.886 19.6067C156.641 17.1169 153.595 15.5045 151.57 13.7493C148.368 10.9741 145.036 8.52595 140.988 7.13598C138.156 6.16306 135.114 7.13317 132.216 6.65011C129.893 6.26305 125.727 5.83483 123.713 4.7606C120.673 3.1394 116.251 3.78885 112.916 3.78885C110.321 3.78885 109.481 6.19079 108.651 8.16172C107.729 10.3518 106.193 12.5422 104.548 14.3701C103.15 15.9233 102.806 17.9069 101.849 19.8227C100.791 21.9371 99.7661 23.627 98.3395 25.4102C97.3793 26.6105 98.636 32.35 96.5579 29.1083C94.7356 26.2654 94.131 24.4036 93.9666 21.2803C93.8888 19.8023 92.8509 19.0759 92.509 17.8792C91.979 16.0244 90.835 13.9371 90.0796 12.2377C88.651 9.02321 85.7445 6.6748 84.0062 3.54591C82.1256 0.160884 81.0001 4.7606 78.9855 4.7606H60.3333C58.4831 4.7606 47.4267 3.68436 46.5939 5.5164C45.6269 7.64378 45.7349 10.6775 45.8651 13.0205C45.9885 15.2426 49.637 15.6886 51.2097 14.856C55.0646 12.8151 59.5596 14.3563 63.4645 15.5578C65.9792 16.3316 68.712 16.669 71.3041 17.3484C72.2421 17.5942 73.1617 17.8848 74.0458 18.2571C76.5439 19.309 79.3904 17.2552 79.3904 21.2803C79.3904 23.8422 79.1503 27.138 77.4469 29.0543C75.9612 30.7257 76.7866 33.8448 75.8813 35.8565C75.1705 37.4362 74.2539 42.3611 72.4262 42.6048C67.8987 43.2085 63.4126 42.4978 59.0107 43.8735C55.2031 45.0633 50.7719 44.6023 46.8099 44.6023C44.6901 44.6023 37.0216 46.015 39.0629 42.4428C41.6508 37.9139 41.2342 32.0296 43.9216 27.3267C45.0624 25.3303 44.9287 20.7944 47.3227 20.7944C48.9684 20.7944 52.6673 19.9712 52.6673 22.0091C52.6673 23.7371 51.8758 26.7865 50.7238 28.0826C49.8569 29.0578 49.7521 33.073 49.7521 34.3989C49.7521 35.8128 48.0782 39.8971 50.13 40.6073C52.169 41.3131 55.3436 40.7153 57.5261 40.7153C60.3789 40.7153 61.1312 38.4425 63.3566 37.2062C65.2336 36.1634 66.8478 34.3246 67.8374 32.4554C68.9208 30.4089 73.5356 19.6659 71.3041 17.3484C68.712 16.669 65.9792 16.3316 63.4645 15.5578C59.5596 14.3563 55.0646 12.8151 51.2097 14.856C49.637 15.6886 45.9885 15.2426 45.8651 13.0205C45.7349 10.6775 45.6269 7.64378 46.5939 5.5164C47.4267 3.68436 58.4831 4.7606 60.3333 4.7606H78.9855C81.0001 4.7606 82.1256 0.160884 84.0062 3.54591C85.7445 6.6748 88.651 9.02321 90.0796 12.2377C90.835 13.9371 91.979 16.0244 92.509 17.8792C92.8509 19.0759 93.8888 19.8023 93.9666 21.2803C94.131 24.4036 94.7356 26.2654 96.5579 29.1083C98.636 32.35 97.3793 26.6105 98.3395 25.4102C99.7661 23.627 100.791 21.9371 101.849 19.8227C102.806 17.9069 103.15 15.9233 104.548 14.3701C106.193 12.5422 107.729 10.3518 108.651 8.16172C109.481 6.19079 110.321 3.78885 112.916 3.78885C116.251 3.78885 120.673 3.1394 123.713 4.7606C125.727 5.83483 129.893 6.26305 132.216 6.65011C135.114 7.13317 138.156 6.16306 140.988 7.13598C145.036 8.52595 148.368 10.9741 151.57 13.7493C153.595 15.5045 156.641 17.1169 157.886 19.6067C158.911 21.6574 159.346 27.187 158.102 29.1623C157.03 30.8648 155.497 33.3848 155.214 35.3707C154.847 37.938 153.048 39.2082 151.786 41.4171C151.233 42.3842 149.462 42.8488 148.492 43.2526C147.621 43.6156 147.101 44.8296 146.198 45.3311C145.248 45.8587 142.379 46.1861 141.204 46.4378C139.04 46.9016 137.071 47.5789 135.023 48.4893C132.678 49.5313 130.228 49.461 127.654 49.461C125.736 49.461 117.298 50.4791 115.642 49.1911C114.982 48.6777 114.859 43.2449 114.859 42.4158C114.859 40.323 113.887 38.1923 113.887 36.0995V29.5402C113.887 28.2713 114.569 27.5828 115.075 26.5709C115.68 25.3603 115.139 23.9707 115.723 22.7379C116.393 21.3237 116.204 20.7646 115.858 19.5528C115.74 19.1393 116.05 18.3138 115.723 17.9872C115.641 17.9049 115.457 17.866 115.264 17.8504Z" fill="#0038FF"/>
<path d="M80.848 15.4498C83.428 18.968 84.4564 23.196 86.4626 26.9219C87.9712 29.7235 88.9427 32.6301 90.9434 35.1547C91.9086 36.3727 93.7451 40.855 95.1813 41.1742C99.5212 42.1386 104.118 29.9387 105.871 27.4077C107.637 24.8555 109.001 21.8011 110.243 19.0669C110.901 17.6211 111.52 16.334 112.052 14.856C112.639 13.2252 116.628 13.9922 117.936 13.9922C121.294 13.9922 124.743 13.7835 128.086 14.1002C129.993 14.2808 131.829 14.8017 133.7 15.1799C136.53 15.7519 140.827 15.7831 143.283 17.4203C144.765 18.4085 146.441 23.3059 146.441 24.9244C146.441 27.4052 147.312 29.1432 146.333 31.5916C144.561 36.022 139.497 36.2363 135.59 37.3142C133.329 37.9378 125.548 40.6746 125.548 36.2344C125.548 33.8411 125.548 31.4477 125.548 29.0543C125.548 26.9488 125.548 24.8434 125.548 22.7379C125.548 21.4284 125.804 19.8783 125.521 18.608C125.119 16.7965 115.811 17.8792 114.697 17.8792C114.353 17.8792 115.48 17.7441 115.723 17.9872C116.05 18.3138 115.74 19.1393 115.858 19.5528C116.204 20.7646 116.393 21.3237 115.723 22.7379C115.139 23.9707 115.68 25.3603 115.075 26.5709C114.569 27.5828 113.887 28.2713 113.887 29.5402C113.887 31.7266 113.887 33.913 113.887 36.0995C113.887 38.1923 114.859 40.323 114.859 42.4158C114.859 43.2449 114.982 48.6778 115.642 49.1911C117.298 50.4791 125.736 49.461 127.654 49.461C130.228 49.461 132.678 49.5313 135.023 48.4893C137.071 47.5789 139.04 46.9016 141.204 46.4378C142.379 46.1861 145.248 45.8587 146.198 45.3311C147.101 44.8296 147.621 43.6156 148.492 43.2526C149.462 42.8488 151.233 42.3842 151.786 41.4171C153.048 39.2082 154.847 37.938 155.214 35.3707C155.497 33.3848 157.03 30.8648 158.102 29.1623C159.346 27.187 158.911 21.6574 157.886 19.6067C156.641 17.1169 153.595 15.5045 151.57 13.7493C148.368 10.9741 145.036 8.52595 140.988 7.13598C138.156 6.16306 135.114 7.13317 132.216 6.65011C129.893 6.26305 125.727 5.83483 123.713 4.7606C120.673 3.1394 116.251 3.78885 112.916 3.78885C110.321 3.78885 109.481 6.19079 108.651 8.16172C107.729 10.3518 106.193 12.5422 104.548 14.3701C103.15 15.9233 102.806 17.9069 101.849 19.8227C100.791 21.9371 99.7661 23.627 98.3395 25.4102C97.3793 26.6105 98.636 32.35 96.5579 29.1083C94.7356 26.2654 94.131 24.4036 93.9666 21.2803C93.8888 19.8023 92.8509 19.0759 92.509 17.8792C91.979 16.0244 90.835 13.9371 90.0796 12.2377C88.651 9.02321 85.7445 6.6748 84.0062 3.54591C82.1256 0.160884 81.0001 4.7606 78.9855 4.7606C72.7681 4.7606 66.5507 4.7606 60.3333 4.7606C58.4831 4.7606 47.4267 3.68436 46.5939 5.5164C45.6269 7.64378 45.7349 10.6775 45.8651 13.0205C45.9885 15.2426 49.637 15.6886 51.2097 14.856C55.0646 12.8151 59.5596 14.3563 63.4645 15.5578C66.8892 16.6116 70.7185 16.8561 74.0458 18.2571C76.5439 19.3089 79.3904 17.2552 79.3904 21.2803C79.3904 23.8422 79.1503 27.138 77.4469 29.0543C75.9612 30.7257 76.7866 33.8448 75.8813 35.8565C75.1705 37.4362 74.2539 42.3611 72.4262 42.6048C67.8987 43.2085 63.4126 42.4978 59.0107 43.8735C55.2031 45.0633 50.7719 44.6023 46.8099 44.6023C44.6901 44.6023 37.0216 46.015 39.0629 42.4428C41.6508 37.9139 41.2342 32.0296 43.9216 27.3267C45.0624 25.3303 44.9287 20.7944 47.3227 20.7944C48.9684 20.7944 52.6673 19.9712 52.6673 22.0091C52.6673 23.7371 51.8758 26.7865 50.7238 28.0826C49.8569 29.0578 49.7521 33.073 49.7521 34.3989C49.7521 35.8128 48.0782 39.8971 50.13 40.6073C52.169 41.3131 55.3436 40.7153 57.5261 40.7153C60.3789 40.7153 61.1312 38.4425 63.3566 37.2062C65.2336 36.1634 66.8478 34.3246 67.8374 32.4554C69.0534 30.1586 74.7175 16.9074 70.1588 16.9074" stroke="#0047FF" stroke-width="3" stroke-linecap="round"/>
</svg>
